# xmcd CD database file generated by Grip 3.2.0
# 
# Track frame offsets:
#       194
#       24104
#       40472
#       62516
#       88226
#       108101
#       137045
#       178400
#       192156
#       211497
#       226542
#       251733
# 
# Disc length: 3612 seconds
# 
# Revision: 2
# Processed by: cddbd v1.5.1PL2 Copyright (c) Steve Scherf et al.
# Submitted via: Grip 3.2.0
# 
DISCID=9f0e1a0c
DTITLE=Various Artist - Play The Blues!
DYEAR=1900
DGENRE=Blues
TTITLE0=Jimmy Dawkins - Lonely Guitar Man
TTITLE1=The Shadows with Luther "Houserocker" Johnson - Drivin' Me Crazy
TTITLE2=Jerry McCain - Three Wives
TTITLE3=Noble Watts w/ Nat Adderly and Lucky Peterson - Keep It
TTITLE4=Drink Small - Little Red Rooster
TTITLE5=Theodis Ealey - Looking Up At The Bottom
TTITLE6=Gary B.B. Coleman - The Sky Is Crying
TTITLE7=Chicago Bob Nelson - Locksmith
TTITLE8=Tom Principato - In Orbit
TTITLE9=Sonny Rhodes - Ain't No Blues In Town
TTITLE10=Troy Turner - House Without A Home
TTITLE11=Buster Benton - I Like To Hear My Guitar Sing
EXTD=
EXTT0=Jimmy Dawkins\n
EXTT1=The Shadows\nwith Luther Houserocker Johnson\n
EXTT2=Jerry McCain\n
EXTT3=Noble Watts w/ Nat Adderly &\nLucky Peterson\n
EXTT4=Drink Small\n
EXTT5=Theodis Ealey\n
EXTT6=Gary B.B. Coleman\n
EXTT7=Chicago Bob Nelson\n
EXTT8=Tom Principato\n
EXTT9=Sonny Rhodes\n
EXTT10=Troy Turner\n
EXTT11=Buster Benton\n
PLAYORDER=
